<svg width="22" height="20" viewBox="0 0 22 20" fill="none" xmlns="http://www.w3.org/2000/svg">
<path d="M21.8535 6.37003C21.8535 3.13344 19.2297 0.509766 15.9931 0.509766C13.8796 0.509766 12.0339 1.63217 11.0028 3.30957C9.97187 1.63217 8.12538 0.509766 6.01199 0.509766C2.7754 0.509766 0.152344 3.13344 0.152344 6.37003C0.152344 8.13217 0.933193 9.70867 2.16386 10.7822L10.4681 19.0868C10.6099 19.2286 10.8022 19.3083 11.0028 19.3083C11.2035 19.3083 11.3958 19.2286 11.5376 19.0868L19.8418 10.7822C21.0725 9.70867 21.8535 8.13217 21.8535 6.37003Z" fill="url(#paint0_linear)"/>
<defs>
<linearGradient id="paint0_linear" x1="0.152344" y1="9.90902" x2="21.8535" y2="9.90902" gradientUnits="userSpaceOnUse">
<stop stop-color="#C84E89"/>
<stop offset="1" stop-color="#F15F79"/>
</linearGradient>
</defs>
</svg>
