<svg width="137" height="457" viewBox="0 0 137 457" fill="none" xmlns="http://www.w3.org/2000/svg">
<path d="M134.877 173.783C133.757 170.119 133.757 164.385 134.237 160.562C135.837 148.138 132.637 127.271 131.676 121.696C131.516 120.899 131.516 119.625 131.676 118.988C136.317 89.8382 114.556 82.8296 108.795 81.396C107.995 81.2367 106.875 80.7588 106.235 80.4403L87.194 69.6087C86.5539 69.2901 85.9139 68.3344 85.7539 67.538L84.6338 58.14C84.4738 57.3436 84.7938 56.2285 85.2738 55.5914C87.994 51.4499 89.9141 49.0606 90.8742 43.3262C92.1542 42.0519 93.2743 38.7069 93.9143 34.884C94.5544 29.6275 93.7543 25.1674 91.9942 25.0082C91.6742 25.0082 91.5142 25.0082 91.1942 25.1674C89.7541 14.4952 87.834 0 68.7929 0C47.9917 0 47.8317 14.6545 46.5516 25.1674C46.2316 25.0082 46.0716 25.0082 45.7516 25.0082C43.9915 25.1674 43.1914 29.6275 43.8315 34.884C44.3115 38.7069 45.4316 41.8927 46.8717 43.3262C47.8317 49.0606 49.7518 51.4499 52.472 55.7507C52.952 56.3878 53.112 57.5028 53.112 58.2993L51.992 67.6973C51.8319 68.4937 51.1919 69.4494 50.5519 69.768L31.5108 80.5995C30.8708 80.9181 29.5907 81.396 28.9506 81.5553C23.0303 82.8296 1.26907 89.8382 5.90933 118.829C6.06934 119.625 6.06934 120.899 5.90933 121.536C4.94928 127.271 1.58908 148.138 3.34918 160.562C3.82921 164.385 3.34918 169.801 2.06911 173.464C-0.0110071 179.517 -1.6111 190.189 2.86916 206.277L5.10928 230.171C5.10928 230.171 4.94928 231.604 5.10928 233.994C5.10928 237.976 5.26929 250.4 5.10928 252.471C4.78927 254.86 9.42953 259.002 9.42953 261.391C9.42953 261.391 20.3102 270.63 22.7103 271.426C22.7103 271.426 24.6304 268.559 22.7103 266.966C22.7103 266.966 23.5103 265.055 22.2303 264.099C22.2303 264.099 17.27 260.435 14.2298 255.497C14.2298 255.497 15.0298 250.4 14.2298 248.329L15.6699 246.737L17.91 255.02C17.91 255.02 20.4702 259.32 22.2303 254.701C22.2303 254.701 22.0702 248.011 20.6302 244.825C20.6302 244.825 21.9102 234.79 17.11 231.126C17.11 230.967 17.11 230.808 16.95 230.649V229.852C16.95 229.533 16.95 229.215 16.95 228.896C17.75 222.366 19.9901 206.118 21.9102 196.561C21.9102 196.561 24.4704 188.597 23.0303 178.243C22.5503 174.42 22.3903 168.367 23.5103 164.703C25.2704 158.65 27.6706 150.049 28.3106 144.792C28.3106 144.792 36.6311 180.473 30.7107 190.667C28.3106 194.809 26.3905 211.693 25.9105 234.153C25.2704 266.17 27.6706 309.655 36.7911 343.424C37.7511 347.088 38.0712 353.3 37.9112 357.123C37.9112 357.919 37.9111 359.034 38.0712 360.149C38.5512 368.273 40.7913 385.158 43.9915 401.883C44.9515 406.661 45.4316 411.599 46.7117 416.378C47.6717 419.882 47.8317 422.909 47.5117 426.732C47.3517 428.165 47.0317 429.599 46.5516 431.032C45.9116 433.103 45.4316 434.696 44.1515 436.448C42.7114 438.519 42.0714 441.227 40.1513 443.138C38.0712 445.368 34.551 446.005 32.1508 447.598C31.5108 448.076 29.4307 449.191 29.2707 450.147V453.014C29.2707 453.97 29.7507 454.766 30.3907 454.766C31.0308 454.926 31.5108 454.288 31.5108 453.333C31.5108 451.899 31.9908 449.988 33.4309 448.554C33.5909 448.395 34.0709 448.395 34.2309 448.554C34.3909 448.713 34.3909 449.191 34.2309 449.35C32.9509 450.625 32.6308 452.218 32.6308 453.492C32.6308 454.448 33.2709 455.085 33.9109 455.244C34.551 455.403 34.871 454.766 34.871 453.81C34.871 452.218 35.351 450.465 36.7911 449.032C36.9511 448.873 37.4311 448.873 37.5911 449.032C37.7511 449.191 37.7511 449.669 37.5911 449.828C36.3111 451.103 35.991 452.695 35.991 453.97C35.991 454.926 36.6311 455.563 37.2711 455.722C37.9111 455.881 38.2312 455.244 38.2312 454.288C38.2312 452.695 38.7112 450.943 40.1513 449.51C40.3113 449.35 40.7913 449.35 40.9513 449.51C41.1113 449.669 41.1113 450.147 40.9513 450.306C39.6712 451.58 39.3512 453.173 39.3512 454.448C39.3512 455.403 40.3113 456.2 41.1113 456.2C41.9114 456.359 42.7114 455.722 42.8714 454.766C43.1914 453.014 43.9915 450.625 46.5516 449.191C46.8717 449.032 47.1917 449.191 47.3517 449.35C47.5117 449.669 47.3517 449.988 47.1917 450.147C45.2716 451.262 44.4715 453.173 44.1515 454.766C43.9915 455.563 44.7915 456.359 45.5916 456.518C46.3916 456.518 47.1917 456.678 47.9917 456.678C47.9917 456.678 52.312 458.589 57.5923 450.465C57.5923 450.465 66.3928 450.147 60.9525 439.315C60.6324 438.678 60.4724 437.085 60.3124 436.289C59.9924 434.537 61.1125 433.74 61.9125 432.307C62.7126 430.714 61.7525 429.28 61.2725 427.847C60.9525 426.891 61.2725 425.935 61.2725 424.979L62.8726 384.839C62.8726 384.839 63.3526 371.777 62.5526 360.149C62.3925 357.601 62.0725 355.052 61.7525 352.822C61.1125 348.999 60.4724 342.946 60.9525 339.123C63.3526 320.646 69.2729 270.311 66.8728 248.329H70.393C68.1529 270.47 74.3932 320.805 76.7934 339.123C77.2734 342.946 76.6334 348.999 75.9933 352.822C75.6733 355.052 75.1933 357.601 75.0333 360.149C74.0732 371.777 74.5532 384.839 74.5532 384.839L76.1533 424.979C76.1533 425.935 76.4733 426.891 76.1533 427.847C75.6733 429.28 74.7132 430.714 75.5133 432.307C76.3133 433.74 77.2734 434.537 77.1134 436.289C76.9534 437.085 76.9534 438.678 76.4733 439.315C70.873 450.147 79.8335 450.465 79.8335 450.465C85.2738 458.589 89.4341 456.678 89.4341 456.678C90.0741 456.678 90.8742 456.678 91.8342 456.518C92.6343 456.518 93.4343 455.722 93.2743 454.766C92.9543 453.173 92.3143 451.262 90.2341 450.147C89.9141 449.988 89.9141 449.669 90.0741 449.35C90.2341 449.032 90.5541 449.032 90.8742 449.191C93.2743 450.625 94.2344 452.855 94.5544 454.766C94.7144 455.563 95.3544 456.2 96.3145 456.2C97.1145 456.041 98.0746 455.244 98.0746 454.448C98.0746 453.173 97.7546 451.58 96.4745 450.306C96.3145 450.147 96.1545 449.669 96.4745 449.51C96.6345 449.35 97.1145 449.191 97.2745 449.51C98.7146 450.943 99.1946 452.855 99.1946 454.288C99.1946 455.244 99.5147 455.722 100.155 455.722C100.795 455.563 101.435 454.926 101.435 453.97C101.435 452.695 101.115 451.103 99.8347 449.828C99.6747 449.669 99.5147 449.191 99.8347 449.032C99.9947 448.873 100.475 448.713 100.635 449.032C102.075 450.465 102.555 452.377 102.555 453.81C102.555 454.766 102.875 455.244 103.515 455.244C104.155 455.085 104.795 454.288 104.795 453.492C104.795 452.218 104.475 450.625 103.195 449.35C103.035 449.191 102.875 448.713 103.195 448.554C103.355 448.395 103.835 448.235 103.995 448.554C105.435 449.988 105.915 451.74 105.915 453.333C105.915 454.288 106.395 454.766 107.035 454.766C107.675 454.607 108.155 453.81 108.155 453.014V450.147C107.995 449.191 105.915 448.076 105.275 447.598C102.715 446.005 99.3546 445.368 97.2745 443.138C95.5144 441.227 94.8744 438.519 93.2743 436.448C91.9942 434.696 91.5142 433.103 90.8742 431.032C90.3941 429.599 90.0741 428.165 89.9141 426.732C89.5941 422.909 89.7541 420.042 90.7142 416.378C91.9942 411.759 92.6343 406.661 93.4343 401.883C96.6345 385.158 98.5546 368.273 99.1946 360.149C99.1946 358.875 99.1946 357.919 99.1946 357.123C99.0346 353.3 99.1946 347.247 100.155 343.424C109.595 309.177 112.155 266.01 111.355 234.153C110.875 211.693 108.795 194.809 106.395 190.667C100.475 180.473 108.795 144.792 108.795 144.792C109.435 150.049 111.835 158.81 113.595 164.703C114.716 168.367 114.555 174.42 113.915 178.243C112.315 188.278 115.196 196.561 115.196 196.561C117.116 206.118 119.356 222.525 120.156 228.896C120.316 229.693 120.156 230.489 119.996 231.445C115.516 235.268 116.636 244.825 116.636 244.825C115.196 248.011 115.036 254.701 115.036 254.701C116.796 259.32 119.356 255.02 119.356 255.02L121.596 246.737L123.036 248.329C122.236 250.559 123.036 255.497 123.036 255.497C119.996 260.595 115.036 264.099 115.036 264.099C113.755 265.055 114.556 266.966 114.556 266.966C112.635 268.718 114.556 271.426 114.556 271.426C116.956 270.63 127.836 261.391 127.836 261.391C127.836 259.002 132.477 254.86 132.157 252.471C131.996 250.4 132.157 237.976 132.157 233.994C132.317 231.604 132.157 230.171 132.157 230.171L134.077 206.277C138.237 191.464 136.637 180.314 134.877 173.783Z" fill="#4AB7FF"/>
</svg>
