<svg width="24" height="20" viewBox="0 0 24 20" fill="none" xmlns="http://www.w3.org/2000/svg">
<path d="M23.1964 13.2664C22.7447 10.9661 21.7455 8.77876 20.464 6.82706C19.8797 5.93836 19.1777 5.10858 18.4068 4.37455C17.8078 3.805 16.9583 2.99977 16.0696 3.01695C16.0598 3.01695 16.05 3.01695 16.0377 3.01695C14.5991 3.07833 14.1155 4.7698 13.8847 5.92854C13.7448 6.62575 13.6589 7.33278 13.6196 8.04472C13.1998 7.56848 12.9862 6.88843 12.9862 6.01692V3.06851H12.046H11.1057V6.01692C11.1057 6.89089 10.8921 7.57091 10.4723 8.04472C10.433 7.33278 10.3446 6.62575 10.2072 5.92854C9.9764 4.7698 9.49277 3.07833 8.05416 3.01695C8.04436 3.01695 8.03452 3.01695 8.02224 3.01695C7.13109 2.99731 6.28167 3.805 5.68512 4.37455C4.91426 5.10613 4.21214 5.93836 3.62786 6.82706C2.34146 8.77876 1.34474 10.9661 0.893028 13.2664C0.576338 14.8818 -0.118417 18.8981 2.42738 19.0356C3.90527 19.1141 5.2285 17.8548 6.45843 17.2189C7.44042 16.7107 8.45432 16.1559 9.14416 15.2648C9.93221 14.246 10.1311 12.8957 10.3054 11.656C10.3692 11.1993 10.4183 10.7378 10.4527 10.2763C10.7129 10.1633 11.005 10.0038 11.2972 9.78038C11.5427 9.59132 11.8053 9.34583 12.0459 9.02668C12.2865 9.34583 12.5467 9.5938 12.7947 9.78038C13.0868 10.0038 13.379 10.1634 13.6392 10.2763C13.6711 10.7378 13.7202 11.1993 13.7865 11.656C13.9608 12.8957 14.1621 14.246 14.9477 15.2648C15.6351 16.1559 16.6514 16.7132 17.6334 17.2189C18.8633 17.8548 20.189 19.1141 21.6645 19.0356C24.2079 18.8981 23.5131 14.8818 23.1964 13.2664Z" fill="url(#paint0_linear)"/>
<path d="M12.986 2.06217V0.736489C12.986 0.328965 12.657 0 12.2495 0H12.0457H11.842C11.4344 0 11.1055 0.328965 11.1055 0.736489V2.06217H12.0457H12.986Z" fill="url(#paint1_linear)"/>
<defs>
<linearGradient id="paint0_linear" x1="0.562012" y1="11.0279" x2="23.5276" y2="11.0279" gradientUnits="userSpaceOnUse">
<stop stop-color="#16A085"/>
<stop offset="1" stop-color="#F4D03F"/>
</linearGradient>
<linearGradient id="paint1_linear" x1="11.1055" y1="1.03109" x2="12.986" y2="1.03109" gradientUnits="userSpaceOnUse">
<stop stop-color="#16A085"/>
<stop offset="1" stop-color="#F4D03F"/>
</linearGradient>
</defs>
</svg>
