<svg width="21" height="20" viewBox="0 0 21 20" fill="none" xmlns="http://www.w3.org/2000/svg">
<path d="M20.4581 6.17311C20.7183 5.36307 20.4877 4.34152 19.7813 3.55051C19.4746 3.20788 19.1172 2.94774 18.7408 2.77854C18.6329 2.60088 18.5039 2.42745 18.3579 2.26248C17.7256 1.55395 16.8901 1.17325 16.1224 1.16902C15.5852 0.756599 14.8597 0.443578 14.0349 0.314563C13.3856 0.213043 12.7595 0.238423 12.2118 0.365323C11.7359 0.158053 11.1754 0.0734534 10.5874 0.147478C9.97622 0.225733 9.43476 0.462613 9.02022 0.803129C8.36457 0.507028 7.52068 0.490109 6.71698 0.822164C6.02538 1.10769 5.49451 1.59414 5.19418 2.15461C4.65697 2.27305 4.11342 2.55858 3.65023 3.00273C2.99247 3.633 2.64561 4.44093 2.64772 5.17695C1.84825 5.6211 1.34065 6.38461 1.37661 7.19889C1.16299 7.5246 1.00225 7.90741 0.91765 8.3283C0.771715 9.05797 0.881695 9.76436 1.1778 10.3227C1.15665 11.5558 1.84825 12.6196 2.88883 12.8269C2.95651 12.8396 3.02419 12.8502 3.09187 12.8565C3.05592 13.1124 3.06015 13.3726 3.11302 13.6327C3.41124 15.1365 5.13708 16.0607 6.96867 15.6969C7.05113 15.68 7.13364 15.661 7.21401 15.6399C7.48684 16.0776 8.05366 15.8894 8.05366 15.8894V17.5095C8.05366 17.6829 8.11923 17.8479 8.23978 17.9748L9.13654 18.9202C9.34591 19.1423 9.71817 18.9921 9.71817 18.6876V16.856C9.77316 15.2041 10.3802 14.3878 10.8983 14.0769C11.5963 13.656 11.5857 12.7804 11.5815 12.461C12.1314 12.7508 13.0007 12.9157 13.7282 12.8333C17.0107 12.4547 17.182 10.2466 17.2899 9.88496C18.2479 9.95687 19.1278 9.55079 19.5085 8.77036C19.5613 8.6604 19.6036 8.54617 19.6332 8.43196C19.9505 8.24374 20.2107 7.97512 20.3756 7.63672C20.5998 7.17985 20.6146 6.66379 20.4581 6.17311Z" fill="url(#paint0_linear)"/>
<defs>
<linearGradient id="paint0_linear" x1="0.853516" y1="9.57369" x2="20.562" y2="9.57369" gradientUnits="userSpaceOnUse">
<stop stop-color="#BF5AE0"/>
<stop offset="1" stop-color="#A811DA"/>
</linearGradient>
</defs>
</svg>
