<svg width="23" height="39" viewBox="0 0 23 39" fill="none" xmlns="http://www.w3.org/2000/svg">
<path d="M20.7107 6.80664C20.7107 8.01929 20.2445 9.15868 19.4012 10.0146L11.5265 17.9876L3.65685 10.0146C2.81131 9.15924 2.3457 8.02042 2.3457 6.80664H20.7107Z" fill="#AAD3F6"/>
<path d="M22.9987 37.2531V38.8602H0V33.707C0 31.8649 0.710366 30.135 1.99481 28.8333L2.12442 28.7015L9.75989 20.9663L10.8407 22.0617L3.20082 29.7963L3.07566 29.9282C2.07825 30.938 1.52643 32.2774 1.52643 33.707V37.2396L22.9987 37.2531Z" fill="#AAD3F6"/>
<path d="M20.8788 28.7012L12.5847 20.2989L20.8788 11.8977L21.0089 11.7703C22.2934 10.4647 22.9987 8.73591 22.9987 6.89383C22.9987 5.05176 22.2934 3.32295 21.0089 2.0207C19.7189 0.719587 18.0123 0 16.1932 0C14.431 0 12.7755 0.672253 11.4994 1.90293C10.2283 0.672253 8.56723 0 6.80439 0C4.98647 0 3.27926 0.715079 1.99481 2.0207C0.710366 3.32295 0 5.05176 0 6.89383C0 8.73591 0.710366 10.4647 1.99481 11.7703L2.12053 11.8977L19.9236 29.9234C20.921 30.9377 21.4729 32.2766 21.4729 33.7062V36.3129H22.9993V33.7062C22.9993 31.8641 22.2939 30.1342 21.0045 28.828L20.8788 28.7012ZM3.78936 11.3956L3.20082 10.8079L3.07566 10.6715C2.07825 9.66624 1.52643 8.32174 1.52643 6.89383C1.52643 5.46537 2.07825 4.12199 3.07566 3.11558C4.07306 2.10579 5.39534 1.54567 6.80494 1.54567C8.21622 1.54567 9.54183 2.10579 10.5387 3.11558L11.4994 4.08818L12.4601 3.11558C13.4569 2.10579 14.7842 1.54567 16.1932 1.54567C17.6045 1.54567 18.9257 2.10579 19.9281 3.11558C20.9205 4.12199 21.4723 5.46593 21.4723 6.89383C21.4723 8.3223 20.9205 9.66624 19.9231 10.676L19.2133 11.4001L11.4994 19.2096L3.78936 11.3956Z" fill="#AAD3F6"/>
<path d="M20.5056 36.4745L11.5078 36.4784L2.50334 36.4745C2.50334 36.4745 2.48888 36.4316 2.56286 36.337C2.70694 36.1555 3.17087 35.7926 4.68284 35.2466C4.69174 35.2466 4.6973 35.2415 4.70175 35.2415L10.1661 33.2828C10.1705 33.2777 10.1794 33.2777 10.1894 33.2732C11.0795 32.8929 11.2881 32.3897 11.3298 32.1034V24.4297H11.6825V32.1034C11.7197 32.3897 11.9283 32.8929 12.8195 33.2732C12.8284 33.2777 12.8373 33.2777 12.8429 33.2828L18.3077 35.2415C18.3122 35.2415 18.3211 35.2466 18.3255 35.2466C19.8375 35.7926 20.3064 36.155 20.4455 36.337C20.5206 36.4316 20.5056 36.4745 20.5056 36.4745Z" fill="#AAD3F6"/>
</svg>
