<svg width="19" height="19" viewBox="0 0 19 19" fill="none" xmlns="http://www.w3.org/2000/svg">
<path d="M9.07612 0.754883C4.06357 0.754883 0 4.81858 0 9.831C0 14.8434 4.06357 18.9074 9.07612 18.9074C14.0887 18.9074 18.1525 14.8434 18.1525 9.831C18.1525 4.81858 14.0887 0.754883 9.07612 0.754883ZM13 11.5573H9.15206C9.13905 11.5573 9.12694 11.5541 9.11406 11.5536C9.10117 11.5542 9.08913 11.5573 9.07606 11.5573C8.7294 11.5573 8.44833 11.2762 8.44833 10.9295V4.52154C8.44833 4.17488 8.7294 3.89381 9.07606 3.89381C9.42272 3.89381 9.70378 4.17488 9.70378 4.52154V10.3018H12.9997C13.3464 10.3018 13.6275 10.5829 13.6275 10.9295C13.6275 11.2762 13.3466 11.5573 13 11.5573Z" fill="url(#paint0_linear)"/>
<defs>
<linearGradient id="paint0_linear" x1="1.50918e-08" y1="18.9731" x2="19.1896" y2="17.8103" gradientUnits="userSpaceOnUse">
<stop stop-color="#72C6EF"/>
<stop offset="1" stop-color="#004E8F"/>
</linearGradient>
</defs>
</svg>
